<svg width="32" height="32" viewBox="0 0 32 32" fill="none" xmlns="http://www.w3.org/2000/svg">
  <path d="M16 2 L18 14 L16 14 L14 14 Z" fill="#FFD43B"/>
  <path d="M16 30 L18 18 L16 18 L14 18 Z" fill="#FFD43B"/>
  <path d="M2 16 L14 18 L14 16 L14 14 Z" fill="#FFD43B"/>
  <path d="M30 16 L18 18 L18 16 L18 14 Z" fill="#FFD43B"/>
  <path d="M7 7 L15 15 L13 13 Z" fill="#51CF66"/>
  <path d="M25 25 L17 17 L19 19 Z" fill="#51CF66"/>
  <path d="M25 7 L17 15 L19 13 Z" fill="#FF6B6B"/>
  <path d="M7 25 L15 17 L13 19 Z" fill="#FF6B6B"/>
  <circle cx="16" cy="16" r="3" fill="#FFFFFF"/>
</svg>