<svg xmlns="http://www.w3.org/2000/svg" viewBox="0 0 32 32">
  <defs>
    <linearGradient id="grad" x1="0%" y1="0%" x2="100%" y2="100%">
      <stop offset="0%" style="stop-color:#6366f1;stop-opacity:1" />
      <stop offset="100%" style="stop-color:#8b5cf6;stop-opacity:1" />
    </linearGradient>
  </defs>
  <rect width="32" height="32" rx="6" fill="url(#grad)"/>
  <!-- Bold S shape with proper curves -->
  <path d="M 20 10 Q 20 7 16 7 Q 11 7 11 10 Q 11 12.5 15 13.5 Q 19 14.5 19 17 Q 19 19 16 19 Q 13 19 13 17 L 10 17 Q 10 22 16 22 Q 21 22 21 17 Q 21 14.5 17 13.5 Q 13 12.5 13 10 Q 13 8 16 8 Q 19 8 19 10 L 20 10 Z" 
        fill="white" 
        stroke="white" 
        stroke-width="1.5"
        stroke-linejoin="round"/>
</svg>