<svg width="400" height="400" viewBox="0 0 400 400" fill="none" xmlns="http://www.w3.org/2000/svg">
  <!-- Background Circle -->
  <circle cx="200" cy="200" r="180" fill="#FFF4E6"/>
  
  <!-- Book Stack -->
  <rect x="120" y="240" width="160" height="20" rx="4" fill="#5B6EE8"/>
  <rect x="130" y="220" width="140" height="20" rx="4" fill="#FF6B6B"/>
  <rect x="140" y="200" width="120" height="20" rx="4" fill="#51CF66"/>
  
  <!-- Graduation Cap on Person -->
  <circle cx="200" cy="140" r="35" fill="#FFD4A3"/>
  <rect x="165" y="120" width="70" height="8" rx="4" fill="#4A5AC9"/>
  <polygon points="200,105 185,120 215,120" fill="#4A5AC9"/>
  <line x1="215" y1="112" x2="235" y2="125" stroke="#4A5AC9" stroke-width="2"/>
  <circle cx="235" cy="125" r="4" fill="#4A5AC9"/>
  
  <!-- Body -->
  <path d="M165 175 Q200 165 235 175 L235 210 Q200 220 165 210 Z" fill="#5B6EE8"/>
  
  <!-- Stars and Decorative Elements -->
  <path d="M320 100 L325 110 L335 110 L327 117 L330 127 L320 120 L310 127 L313 117 L305 110 L315 110 Z" fill="#FFD43B"/>
  <path d="M80 280 L85 290 L95 290 L87 297 L90 307 L80 300 L70 307 L73 297 L65 290 L75 290 Z" fill="#FF6B6B"/>
  <circle cx="340" cy="240" r="8" fill="#51CF66" opacity="0.6"/>
  <circle cx="60" cy="160" r="10" fill="#5B6EE8" opacity="0.6"/>
  
  <!-- Document/Certificate -->
  <rect x="260" y="180" width="60" height="80" rx="4" fill="#FFFFFF" stroke="#5B6EE8" stroke-width="2"/>
  <rect x="270" y="195" width="40" height="4" rx="2" fill="#E0E0E0"/>
  <rect x="270" y="210" width="35" height="4" rx="2" fill="#E0E0E0"/>
  <rect x="270" y="225" width="40" height="4" rx="2" fill="#E0E0E0"/>
</svg>